<svg width="72" height="86" viewBox="0 0 72 86" fill="none" xmlns="http://www.w3.org/2000/svg">
<rect width="72" height="86" fill="#F5F5F5"/>
<path d="M42 32V16C41.9993 15.2985 41.8141 14.6096 41.4631 14.0023C41.112 13.395 40.6075 12.8907 40 12.54L26 4.54C25.3919 4.18893 24.7021 4.0041 24 4.0041C23.2979 4.0041 22.6081 4.18893 22 4.54L8 12.54C7.39253 12.8907 6.88796 13.395 6.53692 14.0023C6.18589 14.6096 6.00072 15.2985 6 16V32C6.00072 32.7015 6.18589 33.3904 6.53692 33.9977C6.88796 34.605 7.39253 35.1093 8 35.46L22 43.46C22.6081 43.8111 23.2979 43.9959 24 43.9959C24.7021 43.9959 25.3919 43.8111 26 43.46L40 35.46C40.6075 35.1093 41.112 34.605 41.4631 33.9977C41.8141 33.3904 41.9993 32.7015 42 32Z" stroke="#20C55D" stroke-width="4" stroke-linecap="round" stroke-linejoin="round"/>
<path d="M66 70V54C65.9993 53.2985 65.8141 52.6096 65.4631 52.0023C65.112 51.395 64.6075 50.8907 64 50.54L50 42.54C49.3919 42.1889 48.7021 42.0041 48 42.0041C47.2979 42.0041 46.6081 42.1889 46 42.54L32 50.54C31.3925 50.8907 30.888 51.395 30.5369 52.0023C30.1859 52.6096 30.0007 53.2985 30 54V70C30.0007 70.7015 30.1859 71.3904 30.5369 71.9977C30.888 72.605 31.3925 73.1093 32 73.46L46 81.46C46.6081 81.8111 47.2979 81.9959 48 81.9959C48.7021 81.9959 49.3919 81.8111 50 81.46L64 73.46C64.6075 73.1093 65.112 72.605 65.4631 71.9977C65.8141 71.3904 65.9993 70.7015 66 70Z" stroke="#20C55D" stroke-width="4" stroke-linecap="round" stroke-linejoin="round"/>
<path d="M28.6165 19.2727C28.5014 18.3011 28.0348 17.5469 27.2166 17.0099C26.3984 16.473 25.3949 16.2045 24.206 16.2045C23.3366 16.2045 22.576 16.3452 21.924 16.6264C21.2784 16.9077 20.7734 17.2944 20.4091 17.7866C20.0511 18.2788 19.8722 18.8381 19.8722 19.4645C19.8722 19.9886 19.9968 20.4393 20.2461 20.8164C20.5018 21.1871 20.8278 21.4972 21.2241 21.7464C21.6204 21.9893 22.0359 22.1907 22.4705 22.3505C22.9052 22.5039 23.3047 22.6286 23.669 22.7244L25.6634 23.2614C26.1747 23.3956 26.7436 23.581 27.37 23.8175C28.0028 24.054 28.6069 24.3768 29.1822 24.7859C29.7638 25.1886 30.2433 25.7063 30.6204 26.3391C30.9975 26.9719 31.1861 27.7486 31.1861 28.669C31.1861 29.7301 30.908 30.6889 30.3519 31.5455C29.8022 32.402 28.9968 33.0827 27.9357 33.5877C26.881 34.0927 25.5994 34.3452 24.0909 34.3452C22.6847 34.3452 21.467 34.1183 20.4379 33.6644C19.4151 33.2106 18.6097 32.5778 18.0217 31.766C17.44 30.9542 17.1108 30.0114 17.0341 28.9375H19.4886C19.5526 29.679 19.8018 30.2926 20.2365 30.7784C20.6776 31.2578 21.2337 31.6158 21.9048 31.8523C22.5824 32.0824 23.3111 32.1974 24.0909 32.1974C24.9986 32.1974 25.8136 32.0504 26.5359 31.7564C27.2582 31.456 27.8303 31.0405 28.2521 30.5099C28.674 29.973 28.8849 29.3466 28.8849 28.6307C28.8849 27.9787 28.7028 27.4482 28.3384 27.0391C27.9741 26.63 27.4947 26.2976 26.9002 26.0419C26.3058 25.7862 25.6634 25.5625 24.973 25.3707L22.5568 24.6804C21.0227 24.2393 19.8082 23.6097 18.9134 22.7915C18.0185 21.9734 17.571 20.9027 17.571 19.5795C17.571 18.4801 17.8683 17.5213 18.4627 16.7031C19.0636 15.8786 19.869 15.2393 20.8789 14.7855C21.8952 14.3253 23.0298 14.0952 24.2827 14.0952C25.5483 14.0952 26.6733 14.3221 27.6577 14.7759C28.642 15.2234 29.4219 15.837 29.9972 16.6168C30.5788 17.3967 30.8857 18.282 30.9176 19.2727H28.6165Z" fill="#20C55D"/>
<path d="M40.804 55.473V53.3636H55.5312V55.473H49.3565V73H46.9787V55.473H40.804Z" fill="#20C55D"/>
</svg>
